<?xml version="1.0" encoding="utf-8"?>
<!-- Generator: Adobe Illustrator 24.1.2, SVG Export Plug-In . SVG Version: 6.00 Build 0)  -->
<!DOCTYPE svg PUBLIC "-//W3C//DTD SVG 1.1//EN" "http://www.w3.org/Graphics/SVG/1.1/DTD/svg11.dtd" [
	<!ENTITY ns_extend "http://ns.adobe.com/Extensibility/1.0/">
	<!ENTITY ns_ai "http://ns.adobe.com/AdobeIllustrator/10.0/">
	<!ENTITY ns_graphs "http://ns.adobe.com/Graphs/1.0/">
	<!ENTITY ns_vars "http://ns.adobe.com/Variables/1.0/">
	<!ENTITY ns_imrep "http://ns.adobe.com/ImageReplacement/1.0/">
	<!ENTITY ns_sfw "http://ns.adobe.com/SaveForWeb/1.0/">
	<!ENTITY ns_custom "http://ns.adobe.com/GenericCustomNamespace/1.0/">
	<!ENTITY ns_adobe_xpath "http://ns.adobe.com/XPath/1.0/">
]>
<svg version="1.1" id="bf79b16c-092e-4639-beac-779768c843e0" xmlns:x="&ns_extend;" xmlns:i="&ns_ai;" xmlns:graph="&ns_graphs;"
	 xmlns="http://www.w3.org/2000/svg" xmlns:xlink="http://www.w3.org/1999/xlink" x="0px" y="0px" viewBox="0 0 200.3 50.9"
	 style="enable-background:new 0 0 200.3 50.9;" xml:space="preserve">
<style type="text/css">
	.st0{enable-background:new    ;}
	.st1{fill:#FFFFFF;}
</style>
<metadata>
	<sfw  xmlns="&ns_sfw;">
		<slices></slices>
		<sliceSourceBounds  bottomLeftOrigin="true" height="50.9" width="200.3" x="1.2" y="16.8"></sliceSourceBounds>
	</sfw>
</metadata>
<g class="st0">
	<path class="st1" d="M20,3.1L11.8,50H0L8.3,3.1H20z"/>
	<path class="st1" d="M67.5,13.2h-16L45,50H33.2l6.5-36.8H23.5l1.8-10.2h43.9L67.5,13.2z"/>
	<path class="st1" d="M88.4,35.7h-7.8L78.1,50H66.4l8.3-46.9h19.9c4.9,0,8.4,1.1,10.5,3.4c1.5,1.7,2.3,4,2.3,6.7
		c0,0.9-0.1,1.9-0.3,2.9l-1.3,7.4c-0.7,3.6-2.6,6.6-5.7,8.9C96.8,34.6,93,35.7,88.4,35.7z M90.4,13.2h-5.9l-2.2,12.3h5.8
		c3.6,0,5.6-1.6,6.2-4.8l0.5-2.7c0.1-0.4,0.1-0.9,0.1-1.6c0-0.7-0.3-1.4-1-2.2S92.2,13.2,90.4,13.2z"/>
	<path class="st1" d="M139.8,25.3c0,1.5-0.3,2.9-0.8,4.3c-0.5,1.4-1,2.4-1.5,3.1l-0.7,0.9H127c1.1-1,1.6-2.2,1.6-3.7
		c0-0.8-0.3-1.4-0.8-1.9c-0.5-0.5-1.2-0.8-2.1-0.8c-1.5,0-2.8,0.7-3.8,2.2L118.3,50h-11.1l5.5-31.4h10.3l-0.8,4.4
		c2.5-3.5,5.5-5.3,9-5.3c2.8,0,4.9,0.7,6.4,2C139.1,21.1,139.8,22.9,139.8,25.3z"/>
	<path class="st1" d="M155.4,41.7c1,0,1.9-0.2,2.7-0.7l-0.3,7.4c-2,1.7-4.4,2.5-7,2.5c-4,0-6.5-0.9-7.7-2.7
		c-0.8-1.2-1.2-2.5-1.2-3.9s0.1-2.6,0.3-3.6l3.9-22h11.1l-3.7,20.5c0,0.3-0.1,0.5-0.1,0.7C153.5,41.1,154.1,41.7,155.4,41.7z
		 M147.4,8c0-2.8,0.6-4.8,1.9-6.1c1.2-1.3,3.2-1.9,5.8-1.9c3.7,0,5.5,1.6,5.5,4.8c0,2.7-0.6,4.7-1.9,6c-1.2,1.3-3.2,1.9-5.8,1.9
		C149.2,12.7,147.4,11.1,147.4,8z"/>
	<path class="st1" d="M194.7,50h-12.1l-4.6-9.1l-7.8,9.1H158l14.1-16l-8.5-15.8h12.3l4.4,8.9l7.6-8.9h12.3L186.1,34L194.7,50z"/>
</g>
</svg>
