<?xml version="1.0" encoding="utf-8"?>
<!-- Generator: Adobe Illustrator 24.1.2, SVG Export Plug-In . SVG Version: 6.00 Build 0)  -->
<!DOCTYPE svg PUBLIC "-//W3C//DTD SVG 1.1//EN" "http://www.w3.org/Graphics/SVG/1.1/DTD/svg11.dtd" [
	<!ENTITY ns_extend "http://ns.adobe.com/Extensibility/1.0/">
	<!ENTITY ns_ai "http://ns.adobe.com/AdobeIllustrator/10.0/">
	<!ENTITY ns_graphs "http://ns.adobe.com/Graphs/1.0/">
	<!ENTITY ns_vars "http://ns.adobe.com/Variables/1.0/">
	<!ENTITY ns_imrep "http://ns.adobe.com/ImageReplacement/1.0/">
	<!ENTITY ns_sfw "http://ns.adobe.com/SaveForWeb/1.0/">
	<!ENTITY ns_custom "http://ns.adobe.com/GenericCustomNamespace/1.0/">
	<!ENTITY ns_adobe_xpath "http://ns.adobe.com/XPath/1.0/">
]>
<svg version="1.1" id="bf79b16c-092e-4639-beac-779768c843e0" xmlns:x="&ns_extend;" xmlns:i="&ns_ai;" xmlns:graph="&ns_graphs;"
	 xmlns="http://www.w3.org/2000/svg" xmlns:xlink="http://www.w3.org/1999/xlink" x="0px" y="0px" viewBox="0 0 460 460"
	 style="enable-background:new 0 0 460 460;" xml:space="preserve">
<style type="text/css">
	.st0{fill:#FD4350;}
	.st1{display:none;enable-background:new    ;}
	.st2{display:inline;fill:#605F5F;}
	.st3{opacity:0.42;enable-background:new    ;}
	.st4{fill:#605F5F;}
	.st5{enable-background:new    ;}
	.st6{fill:#FFFFFF;}
</style>
<metadata>
	<sfw  xmlns="&ns_sfw;">
		<slices></slices>
		<sliceSourceBounds  bottomLeftOrigin="true" height="460" width="670.5" x="-469" y="-152.3"></sliceSourceBounds>
		<optimizationSettings>
			<targetSettings  fileFormat="PNG24Format" targetSettingsID="0">
				<PNG24Format  filtered="false" interlaced="false" matteColor="#FFFFFF" noMatteColor="true" transparency="true">
					</PNG24Format>
			</targetSettings>
		</optimizationSettings>
	</sfw>
</metadata>
<rect class="st0" width="460" height="460"/>
<text transform="matrix(1 0 0 1 469 280.1794)" class="st6" style="font-family:'FugazOne-Regular'; font-size:65.1969px;">ITPrix</text>
<g class="st1">
	<path class="st2" d="M81.8,187.9l-15.1,86.3H45l15.2-86.3H81.8z"/>
	<path class="st2" d="M169,206.5h-29.5l-11.9,67.6H106l11.9-67.6H88.2l3.4-18.7h80.7L169,206.5z"/>
	<path class="st2" d="M207.4,247.9h-14.3l-4.7,26.2h-21.6l15.2-86.3h36.5c9,0,15.5,2.1,19.3,6.2c2.8,3.2,4.2,7.3,4.2,12.2
		c0,1.7-0.2,3.4-0.5,5.3l-2.4,13.5c-1.2,6.6-4.7,12.1-10.5,16.4C222.9,245.7,215.8,247.9,207.4,247.9z M211.2,206.5h-10.8l-4,22.6
		h10.7c6.5,0,10.3-2.9,11.4-8.7l0.8-4.9c0.2-0.7,0.2-1.7,0.2-2.9c0-1.2-0.6-2.5-1.8-4S214.3,206.5,211.2,206.5z"/>
	<path class="st2" d="M301.8,228.7c0,2.7-0.5,5.4-1.4,7.9c-0.9,2.6-1.8,4.4-2.7,5.6l-1.3,1.7h-18.1c2-1.8,3-4.1,3-6.8
		c0-1.4-0.5-2.6-1.4-3.5c-0.9-0.9-2.2-1.4-3.8-1.4c-2.7,0-5.1,1.4-7.1,4.1l-6.7,37.9h-20.4l10.2-57.6h18.9l-1.4,8
		c4.6-6.5,10.1-9.7,16.5-9.7c5.2,0,9.1,1.2,11.7,3.7C300.5,221,301.8,224.4,301.8,228.7z"/>
	<path class="st2" d="M330.6,258.8c1.8,0,3.5-0.4,4.9-1.2l-0.6,13.5c-3.8,3.1-8,4.7-12.8,4.7c-7.3,0-12-1.7-14.1-5
		c-1.4-2.2-2.2-4.6-2.2-7.1c0-2.5,0.2-4.7,0.5-6.6l7.2-40.5h20.4l-6.7,37.7c-0.1,0.5-0.1,0.9-0.1,1.3
		C327,257.7,328.2,258.8,330.6,258.8z M315.8,197c0-5.1,1.1-8.8,3.4-11.2c2.3-2.4,5.8-3.5,10.6-3.5c6.7,0,10.1,3,10.1,8.9
		c0,5-1.1,8.7-3.4,11c-2.3,2.3-5.9,3.5-10.7,3.5C319.2,205.6,315.8,202.7,315.8,197z"/>
	<path class="st2" d="M402.7,274.1h-22.3l-8.5-16.7l-14.4,16.7h-22.3l25.9-29.5l-15.6-29h22.6l8.1,16.4l14-16.4H413l-26,29.1
		L402.7,274.1z"/>
</g>
<g class="st3">
	<path class="st4" d="M83.8,191.9l-15.1,86.3H47l15.2-86.3H83.8z"/>
	<path class="st4" d="M171,210.5h-29.5l-11.9,67.6H108l11.9-67.6H90.2l3.4-18.7h80.7L171,210.5z"/>
	<path class="st4" d="M209.4,251.9h-14.3l-4.7,26.2h-21.6l15.2-86.3h36.5c9,0,15.5,2.1,19.3,6.2c2.8,3.2,4.2,7.3,4.2,12.2
		c0,1.7-0.2,3.4-0.5,5.3l-2.4,13.5c-1.2,6.6-4.7,12.1-10.5,16.4C224.9,249.7,217.8,251.9,209.4,251.9z M213.2,210.5h-10.8l-4,22.6
		h10.7c6.5,0,10.3-2.9,11.4-8.7l0.8-4.9c0.2-0.7,0.2-1.7,0.2-2.9c0-1.2-0.6-2.5-1.8-4S216.3,210.5,213.2,210.5z"/>
	<path class="st4" d="M303.8,232.7c0,2.7-0.5,5.4-1.4,7.9c-0.9,2.6-1.8,4.4-2.7,5.6l-1.3,1.7h-18.1c2-1.8,3-4.1,3-6.8
		c0-1.4-0.5-2.6-1.4-3.5c-0.9-0.9-2.2-1.4-3.8-1.4c-2.7,0-5.1,1.4-7.1,4.1l-6.7,37.9h-20.4l10.2-57.6h18.9l-1.4,8
		c4.6-6.5,10.1-9.7,16.5-9.7c5.2,0,9.1,1.2,11.7,3.7C302.5,225,303.8,228.4,303.8,232.7z"/>
	<path class="st4" d="M332.6,262.8c1.8,0,3.5-0.4,4.9-1.2l-0.6,13.5c-3.8,3.1-8,4.7-12.8,4.7c-7.3,0-12-1.7-14.1-5
		c-1.4-2.2-2.2-4.6-2.2-7.1c0-2.5,0.2-4.7,0.5-6.6l7.2-40.5h20.4l-6.7,37.7c-0.1,0.5-0.1,0.9-0.1,1.3
		C329,261.7,330.2,262.8,332.6,262.8z M317.8,201c0-5.1,1.1-8.8,3.4-11.2c2.3-2.4,5.8-3.5,10.6-3.5c6.7,0,10.1,3,10.1,8.9
		c0,5-1.1,8.7-3.4,11c-2.3,2.3-5.9,3.5-10.7,3.5C321.2,209.6,317.8,206.7,317.8,201z"/>
	<path class="st4" d="M404.7,278.1h-22.3l-8.5-16.7l-14.4,16.7h-22.3l25.9-29.5l-15.6-29h22.6l8.1,16.4l14-16.4H415l-26,29.1
		L404.7,278.1z"/>
</g>
<g class="st5">
	<path class="st6" d="M82.8,188.9l-15.1,86.3H46l15.2-86.3H82.8z"/>
	<path class="st6" d="M170,207.5h-29.5l-11.9,67.6H107l11.9-67.6H89.2l3.4-18.7h80.7L170,207.5z"/>
	<path class="st6" d="M208.4,248.9h-14.3l-4.7,26.2h-21.6l15.2-86.3h36.5c9,0,15.5,2.1,19.3,6.2c2.8,3.2,4.2,7.3,4.2,12.2
		c0,1.7-0.2,3.4-0.5,5.3l-2.4,13.5c-1.2,6.6-4.7,12.1-10.5,16.4C223.9,246.7,216.8,248.9,208.4,248.9z M212.2,207.5h-10.8l-4,22.6
		h10.7c6.5,0,10.3-2.9,11.4-8.7l0.8-4.9c0.2-0.7,0.2-1.7,0.2-2.9c0-1.2-0.6-2.5-1.8-4S215.3,207.5,212.2,207.5z"/>
	<path class="st6" d="M302.8,229.7c0,2.7-0.5,5.4-1.4,7.9c-0.9,2.6-1.8,4.4-2.7,5.6l-1.3,1.7h-18.1c2-1.8,3-4.1,3-6.8
		c0-1.4-0.5-2.6-1.4-3.5c-0.9-0.9-2.2-1.4-3.8-1.4c-2.7,0-5.1,1.4-7.1,4.1l-6.7,37.9h-20.4l10.2-57.6h18.9l-1.4,8
		c4.6-6.5,10.1-9.7,16.5-9.7c5.2,0,9.1,1.2,11.7,3.7C301.5,222,302.8,225.4,302.8,229.7z"/>
	<path class="st6" d="M331.6,259.8c1.8,0,3.5-0.4,4.9-1.2l-0.6,13.5c-3.8,3.1-8,4.7-12.8,4.7c-7.3,0-12-1.7-14.1-5
		c-1.4-2.2-2.2-4.6-2.2-7.1c0-2.5,0.2-4.7,0.5-6.6l7.2-40.5h20.4l-6.7,37.7c-0.1,0.5-0.1,0.9-0.1,1.3
		C328,258.7,329.2,259.8,331.6,259.8z M316.8,198c0-5.1,1.1-8.8,3.4-11.2c2.3-2.4,5.8-3.5,10.6-3.5c6.7,0,10.1,3,10.1,8.9
		c0,5-1.1,8.7-3.4,11c-2.3,2.3-5.9,3.5-10.7,3.5C320.2,206.6,316.8,203.7,316.8,198z"/>
	<path class="st6" d="M403.7,275.1h-22.3l-8.5-16.7l-14.4,16.7h-22.3l25.9-29.5l-15.6-29h22.6l8.1,16.4l14-16.4H414l-26,29.1
		L403.7,275.1z"/>
</g>
</svg>
